Coordinates
version=1
nRows=32
nColumns=22
inDegrees=yes

Units are S.I. units (second, meters, Newtons, ...)
If the header above contains a line with 'inDegrees', this indicates whether rotational values are in degrees (yes) or radians (no).

endheader
time	pelvis_tilt	pelvis_list	pelvis_rotation	pelvis_tx	pelvis_ty	pelvis_tz	hip_flexion_r	hip_adduction_r	hip_rotation_r	knee_angle_r	ankle_angle_r	subtalar_angle_r	hip_flexion_l	hip_adduction_l	hip_rotation_l	knee_angle_l	ankle_angle_l	subtalar_angle_l	lumbar_extension	lumbar_bending	lumbar_rotation
      3.70000000	     -3.52051001	      0.29739958	     -1.71769523	     -0.84628130	      0.93020591	      0.18518188	     -0.22492328	      2.62785336	      1.29490961	     -8.03606080	      8.83644159	      3.04856258	     15.92110731	     -3.78303606	     -3.51313936	    -34.87967384	     11.60258567	     -0.83807687	     -7.86063666	     -3.42667933	      3.31828422
      3.71000000	     -3.47328854	      0.19152685	     -1.67132608	     -0.84792613	      0.93048296	      0.18488594	     -0.15532002	      2.71023598	      1.17199232	     -8.05170538	      8.72730301	      3.30081654	     15.15153619	     -3.90762350	     -3.67676424	    -34.44583865	     11.85911135	     -0.76606135	     -7.56241436	     -3.26242914	      3.02799880
      3.72000000	     -3.47483460	      0.12227406	     -1.65561892	     -0.84951951	      0.93067000	      0.18462177	      0.00132744	      2.75762434	      1.05306963	     -8.13697437	      8.64478360	      3.46218175	     14.41646947	     -4.02797903	     -3.99296168	    -33.86334026	     11.99518165	     -0.63303065	     -7.21302826	     -3.15818128	      2.76882630
      3.73000000	     -3.47007050	      0.04005031	     -1.64457008	     -0.85104113	      0.93081591	      0.18436811	      0.15348554	      2.82479733	      0.94837692	     -8.23564808	      8.57762534	      3.56678414	     13.67237780	     -4.18833048	     -4.41604455	    -33.17341248	     12.03928320	     -0.49068531	     -6.88270143	     -3.05512026	      2.51351775
      3.74000000	     -3.44084116	     -0.04455624	     -1.64144654	     -0.85247233	      0.93092977	      0.18409151	      0.27165690	      2.89789352	      0.88398465	     -8.33152791	      8.53212570	      3.62269264	     12.89830573	     -4.37039344	     -4.94021738	    -32.38893486	     11.98294873	     -0.35975364	     -6.59334302	     -2.96047827	      2.27004638
      3.75000000	     -3.36929944	     -0.12830183	     -1.64707546	     -0.85379800	      0.93102778	      0.18377017	      0.33022244	      2.97237245	      0.88283610	     -8.41610120	      8.51076040	      3.62530504	     12.07472532	     -4.56089116	     -5.54264352	    -31.52436602	     11.82894061	     -0.25778119	     -6.36619421	     -2.87511956	      2.04266783
      3.76000000	     -3.22972916	     -0.21664120	     -1.65054915	     -0.85499881	      0.93114591	      0.18336066	      0.29245917	      3.05026123	      0.92310679	     -8.47392042	      8.49878966	      3.57247137	     11.17247881	     -4.75160878	     -6.18820006	    -30.58658908	     11.59421293	     -0.18274132	     -6.22879644	     -2.78776492	      1.82785769
      3.77000000	     -3.06205488	     -0.30508710	     -1.67460823	     -0.85615200	      0.93122186	      0.18289341	      0.22741652	      3.12693587	      1.06301903	     -8.54846417	      8.52771946	      3.48586548	     10.24587642	     -4.93564000	     -6.87435701	    -29.60120257	     11.27712079	     -0.14339006	     -6.14254362	     -2.70177129	      1.63209949
      3.78000000	     -2.85985964	     -0.41724776	     -1.70627447	     -0.85723184	      0.93127441	      0.18236697	      0.10579813	      3.22489540	      1.21331222	     -8.59481030	      8.58240583	      3.38405325	      9.29168696	     -5.12981873	     -7.57171467	    -28.57736034	     10.91710843	     -0.10075477	     -6.10733002	     -2.59129887	      1.47591587
      3.79000000	     -2.56735514	     -0.57657021	     -1.72884303	     -0.85830106	      0.93139443	      0.18176152	     -0.10830296	      3.36529618	      1.33967408	     -8.65594432	      8.59990116	      3.26249297	      8.24756536	     -5.33286122	     -8.16459250	    -27.49819767	     10.63342205	     -0.00925178	     -6.20169147	     -2.42618604	      1.32141196
      3.80000000	     -2.28652671	     -0.77004712	     -1.77623345	     -0.85941077	      0.93143135	      0.18112120	     -0.29668406	      3.53504545	      1.47239378	     -8.73731393	      8.64750153	      3.17255957	      7.24694384	     -5.54631849	     -8.72945923	    -26.41019859	     10.41590740	      0.11374206	     -6.30276469	     -2.22033579	      1.21316447
      3.81000000	     -1.97845270	     -1.00799545	     -1.82288350	     -0.86054276	      0.93145000	      0.18040912	     -0.50971338	      3.74150982	      1.56243197	     -8.82577595	      8.69071210	      3.11060608	      6.24960573	     -5.76811072	     -9.20217994	    -25.30870132	     10.32840903	      0.28271187	     -6.45144286	     -1.95982743	      1.12928112
      3.82000000	     -1.64678046	     -1.28049681	     -1.87214513	     -0.86169421	      0.93144991	      0.17961770	     -0.73984068	      3.97320519	      1.62481095	     -8.92904967	      8.72549281	      3.08369319	      5.26752937	     -5.98995984	     -9.59333761	    -24.21230716	     10.37374950	      0.49157017	     -6.64051595	     -1.65451295	      1.07238512
      3.83000000	     -1.30207305	     -1.58567620	     -1.92574723	     -0.86286391	      0.93142055	      0.17875257	     -0.97652375	      4.22871496	      1.66737118	     -9.04570781	      8.76117214	      3.09353962	      4.32195470	     -6.21665687	     -9.91772684	    -23.14792954	     10.54307494	      0.71168412	     -6.85391040	     -1.30590472	      1.05025460
      3.84000000	     -0.93851020	     -1.91085764	     -1.98273049	     -0.86404441	      0.93138574	      0.17781278	     -1.22535703	      4.49493969	      1.69866879	     -9.17809280	      8.79215079	      3.13443739	      3.41285919	     -6.44167090	    -10.19753597	    -22.14098729	     10.80540907	      0.91958968	     -7.09645678	     -0.92923123	      1.05800732
      3.85000000	     -0.56973900	     -2.24854315	     -2.04075247	     -0.86522992	      0.93134266	      0.17680629	     -1.47696612	      4.76647486	      1.72049272	     -9.31554517	      8.83703497	      3.19742835	      2.56164802	     -6.66622414	    -10.45604590	    -21.21991871	     11.13562777	      1.07367702	     -7.34946202	     -0.53352042	      1.09674398
      3.86000000	     -0.18900547	     -2.57192848	     -2.10069858	     -0.86641979	      0.93133151	      0.17574134	     -1.72935768	      5.01671302	      1.74660177	     -9.47578244	      8.87679193	      3.27347800	      1.75465030	     -6.86306054	    -10.69563472	    -20.38616288	     11.47655953	      1.15615594	     -7.61996075	     -0.14995610	      1.15593969
      3.87000000	      0.18939628	     -2.86434051	     -2.16220587	     -0.86761319	      0.93136941	      0.17462720	     -1.97205032	      5.23070500	      1.77556635	     -9.64600599	      8.92008046	      3.35243372	      0.99896203	     -7.01813896	    -10.93007723	    -19.63226524	     11.79166693	      1.14888089	     -7.89135257	      0.20106165	      1.23174221
      3.88000000	      0.56843062	     -3.10238349	     -2.22512672	     -0.86879361	      0.93149059	      0.17348371	     -2.20246102	      5.38674764	      1.81266247	     -9.83973192	      8.96578965	      3.42568017	      0.28111608	     -7.10925595	    -11.17302884	    -18.94658633	     12.05989608	      1.05624523	     -8.16039225	      0.48898502	      1.31828716
      3.89000000	      0.92932593	     -3.26815000	     -2.29038003	     -0.86995307	      0.93169487	      0.17232224	     -2.40222816	      5.46849914	      1.85438906	    -10.05205107	      9.01935320	      3.48167864	     -0.39012713	     -7.11872906	    -11.43374056	    -18.30702268	     12.25540693	      0.89877282	     -8.40541540	      0.69246754	      1.40783111
      3.90000000	      1.24492022	     -3.34227843	     -2.36652323	     -0.87114683	      0.93195654	      0.17115322	     -2.51400685	      5.45690142	      1.89158868	    -10.32902014	      9.08603728	      3.50729543	     -0.97894903	     -7.02969644	    -11.71642678	    -17.72026283	     12.39380081	      0.73239600	     -8.60331955	      0.79136625	      1.49226934
      3.91000000	      1.54172207	     -3.33291676	     -2.44867515	     -0.87225076	      0.93235213	      0.17000398	     -2.62664681	      5.36271810	      1.96317354	    -10.56740321	      9.11505480	      3.50389453	     -1.56195477	     -6.84279575	    -11.98210050	    -17.09754115	     12.36165953	      0.53530184	     -8.76371865	      0.78795786	      1.58565161
      3.92000000	      1.80644332	     -3.27513425	     -2.52487205	     -0.87327625	      0.93282781	      0.16886644	     -2.72448582	      5.22336027	      2.02823266	    -10.76939417	      9.13776055	      3.46011561	     -2.10561539	     -6.60756944	    -12.23139484	    -16.47766073	     12.25018105	      0.32777421	     -8.87474369	      0.72751712	      1.67348177
      3.93000000	      2.01560126	     -3.14200347	     -2.62520022	     -0.87433787	      0.93331856	      0.16776984	     -2.73063753	      5.01101048	      2.11047089	    -11.02249651	      9.13834946	      3.36338699	     -2.55870936	     -6.29963348	    -12.47205424	    -15.90681622	     12.08856359	      0.15887605	     -8.93119999	      0.57790240	      1.75885061
      3.94000000	      2.09677152	     -2.95210846	     -2.74503519	     -0.87539793	      0.93369695	      0.16673770	     -2.59019948	      4.74824350	      2.20315837	    -11.28511793	      9.14551049	      3.26355748	     -2.84020521	     -5.95117197	    -12.69368830	    -15.39199080	     11.84153623	      0.09204798	     -8.83305676	      0.36261786	      1.84425606
      3.95000000	      2.13928010	     -2.75154205	     -2.87752334	     -0.87642400	      0.93405109	      0.16575848	     -2.42134621	      4.47922302	      2.29626548	    -11.52235811	      9.14223717	      3.11412920	     -3.05790119	     -5.60678075	    -12.89176341	    -14.92422774	     11.57272360	      0.03613990	     -8.68714467	      0.13185013	      1.93868260
      3.96000000	      2.11470313	     -2.55576109	     -3.01788730	     -0.87747340	      0.93431041	      0.16482772	     -2.18659791	      4.22123115	      2.37943638	    -11.74061394	      9.12775794	      2.93687174	     -3.16136106	     -5.28969421	    -13.06500699	    -14.53604178	     11.30466696	      0.02144609	     -8.46929654	     -0.09228567	      2.03571228
      3.97000000	      2.02273409	     -2.37589804	     -3.16897661	     -0.87856051	      0.93444905	      0.16395322	     -1.88120335	      3.98481490	      2.45615734	    -11.94970113	      9.11411330	      2.74560213	     -3.14892202	     -5.01305007	    -13.22366812	    -14.23322641	     11.04771415	      0.05586036	     -8.18017319	     -0.29683535	      2.13157782
      3.98000000	      1.86296213	     -2.22875648	     -3.33102338	     -0.87968526	      0.93444987	      0.16313853	     -1.50767644	      3.78737582	      2.51254681	    -12.14507745	      9.11293914	      2.54380304	     -3.02146204	     -4.79423367	    -13.38449979	    -14.01782873	     10.83786581	      0.14556521	     -7.81960201	     -0.46138076	      2.22978080
      3.99000000	      1.68879708	     -2.12139650	     -3.49257180	     -0.88084506	      0.93438871	      0.16235276	     -1.13209102	      3.63076637	      2.55258035	    -12.31156535	      9.07848278	      2.38829847	     -2.85210337	     -4.63112072	    -13.54442969	    -13.85780443	     10.68053998	      0.27071052	     -7.45716177	     -0.57659538	      2.34080805
      4.00000000	      1.53706352	     -2.04786098	     -3.66820270	     -0.88198003	      0.93431654	      0.16162729	     -0.80054624	      3.50668081	      2.59256925	    -12.44652506	      9.03873103	      2.28667214	     -2.70505218	     -4.50708601	    -13.71604274	    -13.71854074	     10.56266485	      0.40478422	     -7.12428637	     -0.65689732	      2.45658778
      4.01000000	      1.42958498	     -1.99915550	     -3.84646679	     -0.88308089	      0.93426824	      0.16091744	     -0.53974422	      3.40283909	      2.64029637	    -12.54523692	      9.00555137	      2.23292105	     -2.61849107	     -4.40254170	    -13.89769357	    -13.56558816	     10.47671791	      0.52601831	     -6.85267591	     -0.70721961	      2.57890449
